<svg xmlns="http://www.w3.org/2000/svg" version="1.1" xmlns:xlink="http://www.w3.org/1999/xlink" xmlns:svgjs="http://svgjs.dev/svgjs" width="2000" height="3061" viewBox="0 0 2000 3061"><g transform="matrix(1,0,0,1,-2.5240818008552424,-4.937096774193606)"><svg viewBox="0 0 162 248" data-background-color="#ffffff" preserveAspectRatio="xMidYMid meet" height="3061" width="2000" xmlns="http://www.w3.org/2000/svg" xmlns:xlink="http://www.w3.org/1999/xlink"><g id="tight-bounds" transform="matrix(1,0,0,1,0.20445062586927065,0.4000000000000057)"><svg viewBox="0 0 161.59109874826146 247.2" height="247.2" width="161.59109874826146"><g><svg viewBox="0 0 161.59109874826146 247.2" height="247.2" width="161.59109874826146"><g><svg viewBox="0 0 161.59109874826146 247.2" height="247.2" width="161.59109874826146"><g id="textblocktransform"><svg viewBox="0 0 161.59109874826146 247.2" height="247.2" width="161.59109874826146" id="textblock"><g><svg viewBox="0 0 161.59109874826146 247.2" height="247.2" width="161.59109874826146"><g transform="matrix(1,0,0,1,0,0)"><svg width="161.59109874826146" viewBox="1.45 -35.45 23.5 35.95" height="247.2" data-palette-color="#ed3b43"><path d="M3.8-12.2L3.8-12.2Q4.75-11.45 7.08-10.15 9.4-8.85 11.53-8.85 13.65-8.85 13.65-10.5L13.65-10.5Q13.65-11.25 13.05-11.83 12.45-12.4 10.85-13.15 9.25-13.9 8.45-14.33 7.65-14.75 6.33-15.73 5-16.7 4.3-17.75L4.3-17.75Q2.3-20.6 2.3-25 2.3-29.4 5.58-32.43 8.85-35.45 14.15-35.45L14.15-35.45Q17.75-35.45 20.8-34.68 23.85-33.9 23.95-32.65L23.95-32.65Q23.95-32.5 23.95-32.35L23.95-32.35Q23.95-30.6 22.85-27.93 21.75-25.25 21.3-24.95L21.3-24.95Q18.1-26.6 15.58-26.6 13.05-26.6 13.05-24.8L13.05-24.8Q13.05-23.7 14.9-22.85L14.9-22.85Q15.3-22.65 16.05-22.3 16.8-21.95 17.78-21.48 18.75-21 19.88-20.28 21-19.55 22.3-18.35L22.3-18.35Q24.95-15.85 24.95-11.75L24.95-11.75Q24.95-6.4 22-3 19.05 0.4 12.9 0.5L12.9 0.5Q9.9 0.5 7.48 0 5.05-0.5 3.25-1.95 1.45-3.4 1.45-5.45 1.45-7.5 2.2-9.53 2.95-11.55 3.8-12.2Z" opacity="1" transform="matrix(1,0,0,1,0,0)" fill="#ed3b43" class="wordmark-text-0" data-fill-palette-color="primary" id="text-0"></path></svg></g></svg></g></svg></g></svg></g><g></g></svg></g><defs></defs></svg><rect width="161.59109874826146" height="247.2" fill="none" stroke="none" visibility="hidden"></rect></g></svg></g></svg>